<svg xmlns="http://www.w3.org/2000/svg" viewBox="0 0 64.53 70.96"><defs><style>.cls-1{fill:#0072bc;}.cls-2{fill:#ef3827;}.cls-3{fill:#f2f2f2;}.cls-4{fill:#323a44;opacity:0.43;}.cls-5{fill:#fff;}.cls-6{fill:#e69b38;}</style></defs><title>dutchCV</title><g id="Layer_2" data-name="Layer 2"><g id="Capa_1" data-name="Capa 1"><rect class="cls-1" x="52.97" y="47.59" width="11.56" height="21.07"/><rect class="cls-2" x="52.97" y="2.16" width="11.56" height="21.83"/><rect class="cls-3" x="52.97" y="23.99" width="11.56" height="23.6"/><polygon class="cls-4" points="52.97 2.23 52.97 68.73 2.24 68.73 2.24 70.96 55.2 70.96 55.2 2.23 52.97 2.23"/><path class="cls-5" d="M53,2.23V0H0V68.73H53ZM13.89,8.63a.54.54,0,1,1,0-1.08H39.07a.54.54,0,0,1,0,1.08ZM19,13.75V28H5.1V13.75ZM47.33,58.09h-42a.53.53,0,0,1-.53-.53A.54.54,0,0,1,5.36,57h42a.54.54,0,0,1,.54.54A.53.53,0,0,1,47.33,58.09Zm0-3.38h-42a.54.54,0,0,1-.53-.54.54.54,0,0,1,.53-.54h42a.54.54,0,0,1,.54.54A.54.54,0,0,1,47.33,54.71Zm0-3.39h-42a.54.54,0,0,1,0-1.07h42a.54.54,0,1,1,0,1.07Zm0-3.38h-42a.54.54,0,0,1,0-1.08h42a.54.54,0,0,1,0,1.08Zm0-4.68h-42a.54.54,0,0,1,0-1.08h42a.54.54,0,0,1,0,1.08Zm0-3.39h-42a.54.54,0,0,1,0-1.07h42a.54.54,0,1,1,0,1.07Zm0-3.38h-42a.54.54,0,0,1,0-1.08h42a.54.54,0,1,1,0,1.08Zm0-3.39h-42a.54.54,0,0,1-.53-.54A.54.54,0,0,1,5.36,32h42a.54.54,0,0,1,.54.54A.54.54,0,0,1,47.33,33.1Zm0-6.63H22.15a.54.54,0,0,1,0-1.08H47.33a.54.54,0,0,1,0,1.08Zm0-3.39H22.15a.54.54,0,1,1,0-1.07H47.33a.54.54,0,1,1,0,1.07Zm0-3.38H22.15a.54.54,0,0,1,0-1.08H47.33a.54.54,0,0,1,0,1.08Zm0-3.39H22.15a.54.54,0,1,1,0-1.07H47.33a.54.54,0,1,1,0,1.07Z"/><path class="cls-6" d="M5.1,28H19V13.75H5.1Zm7-12.38a2.69,2.69,0,0,1,2.32,3A2.69,2.69,0,0,1,12,21.41a2.69,2.69,0,0,1-2.33-3A2.69,2.69,0,0,1,12.09,15.57ZM8,23.45a.74.74,0,0,1,.53-.62l1.57-.53.66-.25a3.49,3.49,0,0,0,1.25.5,3.49,3.49,0,0,0,1.25-.5l.66.25,1.57.53a.75.75,0,0,1,.54.62l.49,2.69h-9Z"/><path class="cls-5" d="M12.09,26.14h4.45l-.49-2.69a.75.75,0,0,0-.54-.62l-1.57-.53-.66-.25a3.49,3.49,0,0,1-1.25.5,3.49,3.49,0,0,1-1.25-.5l-.66.25-1.57.53a.74.74,0,0,0-.53.62l-.5,2.69h4.57Z"/><path class="cls-5" d="M12,21.41a2.69,2.69,0,0,0,2.43-2.88,2.69,2.69,0,0,0-2.32-3,2.69,2.69,0,0,0-2.44,2.87A2.69,2.69,0,0,0,12,21.41Z"/><path class="cls-6" d="M47.33,15.24H22.15a.54.54,0,1,0,0,1.07H47.33a.54.54,0,1,0,0-1.07Z"/><path class="cls-6" d="M47.33,18.62H22.15a.54.54,0,0,0,0,1.08H47.33a.54.54,0,0,0,0-1.08Z"/><path class="cls-6" d="M47.33,22H22.15a.54.54,0,1,0,0,1.07H47.33a.54.54,0,1,0,0-1.07Z"/><path class="cls-6" d="M47.33,25.39H22.15a.54.54,0,0,0,0,1.08H47.33a.54.54,0,0,0,0-1.08Z"/><path class="cls-6" d="M47.33,32h-42a.54.54,0,0,0-.53.54.54.54,0,0,0,.53.54h42a.54.54,0,0,0,.54-.54A.54.54,0,0,0,47.33,32Z"/><path class="cls-6" d="M47.33,35.41h-42a.54.54,0,0,0,0,1.08h42a.54.54,0,1,0,0-1.08Z"/><path class="cls-6" d="M47.33,38.8h-42a.54.54,0,0,0,0,1.07h42a.54.54,0,1,0,0-1.07Z"/><path class="cls-6" d="M47.33,42.18h-42a.54.54,0,0,0,0,1.08h42a.54.54,0,0,0,0-1.08Z"/><path class="cls-6" d="M47.33,46.86h-42a.54.54,0,0,0,0,1.08h42a.54.54,0,0,0,0-1.08Z"/><path class="cls-6" d="M47.33,50.25h-42a.54.54,0,0,0,0,1.07h42a.54.54,0,1,0,0-1.07Z"/><path class="cls-6" d="M47.33,53.63h-42a.54.54,0,0,0-.53.54.54.54,0,0,0,.53.54h42a.54.54,0,0,0,.54-.54A.54.54,0,0,0,47.33,53.63Z"/><path class="cls-6" d="M47.33,57h-42a.54.54,0,0,0-.53.54.53.53,0,0,0,.53.53h42a.53.53,0,0,0,.54-.53A.54.54,0,0,0,47.33,57Z"/><path class="cls-6" d="M39.61,8.09a.54.54,0,0,0-.54-.54H13.89a.54.54,0,1,0,0,1.08H39.07A.54.54,0,0,0,39.61,8.09Z"/></g></g></svg>