<svg xmlns="http://www.w3.org/2000/svg" viewBox="0 0 64.52 70.96"><defs><style>.cls-1{fill:#f2f2f2;}.cls-2{fill:#ef3827;}.cls-3{fill:#223c72;}.cls-4{fill:#323a44;opacity:0.43;}.cls-5{fill:#fff;}.cls-6{fill:#e69b38;}</style></defs><title>englishCV</title><g id="Layer_2" data-name="Layer 2"><g id="Capa_1" data-name="Capa 1"><polygon class="cls-1" points="58.61 25.89 58.27 24.88 57.93 25.89 56.84 25.89 57.72 26.51 57.39 27.52 58.27 26.89 59.16 27.52 58.82 26.51 59.7 25.89 58.61 25.89"/><polygon class="cls-1" points="53.37 31.55 54.26 30.93 55.14 31.55 54.8 30.55 55.69 29.92 54.59 29.92 54.26 28.91 53.92 29.92 52.97 29.92 52.97 30.02 53.71 30.55 53.37 31.55"/><polygon class="cls-1" points="61.56 22.92 62.45 22.3 63.34 22.92 63 21.91 63.88 21.29 62.78 21.29 62.45 20.28 62.11 21.29 61.02 21.29 61.9 21.91 61.56 22.92"/><polygon class="cls-1" points="61.56 5.03 62.45 4.41 63.34 5.03 63 4.02 63.88 3.4 62.78 3.4 62.45 2.39 62.11 3.4 61.02 3.4 61.9 4.02 61.56 5.03"/><polygon class="cls-1" points="61.56 13.87 62.45 13.25 63.34 13.87 63 12.87 63.88 12.24 62.78 12.24 62.45 11.23 62.11 12.24 61.02 12.24 61.9 12.87 61.56 13.87"/><polygon class="cls-1" points="63.88 29.92 62.78 29.92 62.45 28.91 62.11 29.92 61.02 29.92 61.9 30.55 61.56 31.55 62.45 30.93 63.34 31.55 63 30.55 63.88 29.92"/><polygon class="cls-1" points="58.35 16.04 58.01 17.05 56.92 17.05 57.8 17.67 57.47 18.68 58.35 18.05 59.24 18.68 58.9 17.67 59.78 17.05 58.69 17.05 58.35 16.04"/><polygon class="cls-1" points="58.44 7.09 58.09 8.1 57 8.1 57.89 8.73 57.55 9.73 58.44 9.11 59.32 9.73 58.98 8.73 59.87 8.1 58.77 8.1 58.44 7.09"/><rect class="cls-1" x="52.96" y="58.07" width="11.56" height="6.07"/><rect class="cls-1" x="52.96" y="33.83" width="11.56" height="6.02"/><polygon class="cls-1" points="53.37 5.03 54.26 4.41 55.14 5.03 54.8 4.02 55.69 3.4 54.59 3.4 54.26 2.39 53.92 3.4 52.97 3.4 52.97 3.5 53.71 4.02 53.37 5.03"/><polygon class="cls-1" points="53.37 13.87 54.26 13.25 55.14 13.87 54.8 12.87 55.69 12.24 54.59 12.24 54.26 11.23 53.92 12.24 52.97 12.24 52.97 12.34 53.71 12.87 53.37 13.87"/><rect class="cls-1" x="52.96" y="45.92" width="11.56" height="6.07"/><polygon class="cls-1" points="53.37 22.92 54.26 22.3 55.14 22.92 54.8 21.91 55.69 21.29 54.59 21.29 54.26 20.28 53.92 21.29 52.97 21.29 52.97 21.39 53.71 21.91 53.37 22.92"/><rect class="cls-2" x="52.96" y="39.85" width="11.56" height="6.08"/><rect class="cls-2" x="52.96" y="64.14" width="11.56" height="4.52"/><rect class="cls-2" x="52.96" y="51.99" width="11.56" height="6.07"/><path class="cls-3" d="M64.52,2.16H53V3.4h1l.34-1,.33,1h1.1L54.8,4l.34,1-.88-.62L53.37,5l.34-1L53,3.49v8.75h1l.34-1,.33,1h1.1l-.89.63.34,1-.88-.62-.89.62.34-1L53,12.34v9h1l.34-1,.33,1h1.1l-.89.62.34,1-.88-.62-.89.62.34-1L53,21.39v8.53h1l.34-1,.33,1h1.1l-.89.63.34,1-.88-.62-.89.62.34-1L53,30v3.81H64.52ZM62.11,3.4l.34-1,.34,1h1.09L63,4l.34,1-.89-.62L61.56,5l.34-1L61,3.4Zm0,8.84.34-1,.34,1h1.09l-.88.63.34,1-.89-.62-.89.62.34-1L61,12.24Zm0,9,.34-1,.34,1h1.09l-.88.62.34,1-.89-.62-.89.62.34-1L61,21.29Zm-3,6.23-.89-.63-.88.63.33-1-.88-.62h1.09l.34-1,.34,1H59.7l-.88.62Zm-.26-9.85.34,1-.89-.63-.88.63.33-1-.88-.62H58l.34-1,.34,1h1.1ZM59,8.73l.34,1-.89-.62-.88.62.34-1L57,8.1h1.09l.34-1,.34,1h1.1Zm3.47,22.2-.89.62.34-1L61,29.92h1.09l.34-1,.34,1h1.09l-.88.63.34,1Z"/><polygon class="cls-4" points="52.97 2.23 52.97 68.73 2.24 68.73 2.24 70.96 55.2 70.96 55.2 2.23 52.97 2.23"/><path class="cls-5" d="M53,2.23V0H0V68.73H53ZM13.89,8.63a.54.54,0,1,1,0-1.08H39.07a.54.54,0,0,1,0,1.08ZM19,13.75V28H5.1V13.75ZM47.33,58.09h-42a.53.53,0,0,1-.53-.53A.54.54,0,0,1,5.36,57h42a.54.54,0,0,1,.54.54A.53.53,0,0,1,47.33,58.09Zm0-3.38h-42a.54.54,0,0,1-.53-.54.54.54,0,0,1,.53-.54h42a.54.54,0,0,1,.54.54A.54.54,0,0,1,47.33,54.71Zm0-3.39h-42a.54.54,0,0,1,0-1.07h42a.54.54,0,1,1,0,1.07Zm0-3.38h-42a.54.54,0,0,1,0-1.08h42a.54.54,0,0,1,0,1.08Zm0-4.68h-42a.54.54,0,0,1,0-1.08h42a.54.54,0,0,1,0,1.08Zm0-3.39h-42a.54.54,0,0,1,0-1.07h42a.54.54,0,1,1,0,1.07Zm0-3.38h-42a.54.54,0,0,1,0-1.08h42a.54.54,0,1,1,0,1.08Zm0-3.39h-42a.54.54,0,0,1-.53-.54A.54.54,0,0,1,5.36,32h42a.54.54,0,0,1,.54.54A.54.54,0,0,1,47.33,33.1Zm0-6.63H22.15a.54.54,0,0,1,0-1.08H47.33a.54.54,0,0,1,0,1.08Zm0-3.39H22.15a.54.54,0,1,1,0-1.07H47.33a.54.54,0,1,1,0,1.07Zm0-3.38H22.15a.54.54,0,0,1,0-1.08H47.33a.54.54,0,0,1,0,1.08Zm0-3.39H22.15a.54.54,0,1,1,0-1.07H47.33a.54.54,0,1,1,0,1.07Z"/><path class="cls-6" d="M5.1,28H19V13.75H5.1Zm7-12.38a2.69,2.69,0,0,1,2.32,3A2.69,2.69,0,0,1,12,21.41a2.69,2.69,0,0,1-2.33-3A2.69,2.69,0,0,1,12.09,15.57ZM8,23.45a.76.76,0,0,1,.53-.62l1.57-.53.66-.25a3.49,3.49,0,0,0,1.25.5,3.49,3.49,0,0,0,1.25-.5l.66.25,1.57.53a.76.76,0,0,1,.54.62l.49,2.69h-9Z"/><path class="cls-5" d="M12.09,26.14h4.45l-.49-2.69a.76.76,0,0,0-.54-.62l-1.57-.53-.66-.25a3.49,3.49,0,0,1-1.25.5,3.49,3.49,0,0,1-1.25-.5l-.66.25-1.57.53a.76.76,0,0,0-.53.62l-.5,2.69h4.57Z"/><path class="cls-5" d="M12,21.41a2.69,2.69,0,0,0,2.43-2.88,2.69,2.69,0,0,0-2.32-3,2.69,2.69,0,0,0-2.44,2.87A2.69,2.69,0,0,0,12,21.41Z"/><path class="cls-6" d="M47.33,15.24H22.15a.54.54,0,1,0,0,1.07H47.33a.54.54,0,1,0,0-1.07Z"/><path class="cls-6" d="M47.33,18.62H22.15a.54.54,0,0,0,0,1.08H47.33a.54.54,0,0,0,0-1.08Z"/><path class="cls-6" d="M47.33,22H22.15a.54.54,0,1,0,0,1.07H47.33a.54.54,0,1,0,0-1.07Z"/><path class="cls-6" d="M47.33,25.39H22.15a.54.54,0,0,0,0,1.08H47.33a.54.54,0,0,0,0-1.08Z"/><path class="cls-6" d="M47.33,32h-42a.54.54,0,0,0-.53.54.54.54,0,0,0,.53.54h42a.54.54,0,0,0,.54-.54A.54.54,0,0,0,47.33,32Z"/><path class="cls-6" d="M47.33,35.41h-42a.54.54,0,0,0,0,1.08h42a.54.54,0,1,0,0-1.08Z"/><path class="cls-6" d="M47.33,38.8h-42a.54.54,0,0,0,0,1.07h42a.54.54,0,1,0,0-1.07Z"/><path class="cls-6" d="M47.33,42.18h-42a.54.54,0,0,0,0,1.08h42a.54.54,0,0,0,0-1.08Z"/><path class="cls-6" d="M47.33,46.86h-42a.54.54,0,0,0,0,1.08h42a.54.54,0,0,0,0-1.08Z"/><path class="cls-6" d="M47.33,50.25h-42a.54.54,0,0,0,0,1.07h42a.54.54,0,1,0,0-1.07Z"/><path class="cls-6" d="M47.33,53.63h-42a.54.54,0,0,0-.53.54.54.54,0,0,0,.53.54h42a.54.54,0,0,0,.54-.54A.54.54,0,0,0,47.33,53.63Z"/><path class="cls-6" d="M47.33,57h-42a.54.54,0,0,0-.53.54.53.53,0,0,0,.53.53h42a.53.53,0,0,0,.54-.53A.54.54,0,0,0,47.33,57Z"/><path class="cls-6" d="M39.61,8.09a.54.54,0,0,0-.54-.54H13.89a.54.54,0,1,0,0,1.08H39.07A.54.54,0,0,0,39.61,8.09Z"/></g></g></svg>