<svg xmlns="http://www.w3.org/2000/svg" viewBox="0 0 586.64 390.2"><defs><style>.cls-1{isolation:isolate;}.cls-2{mix-blend-mode:color-burn;}.cls-3{fill:none;stroke:#222831;stroke-miterlimit:10;}</style></defs><title>homeVector</title><g class="cls-1"><g id="Layer_1" data-name="Layer 1"><path class="cls-3" d="M342.19-29.19c-31-.58-60.33,24.62-64.46,55.32-1.9,14.08.94,28.33.93,42.53S275,98.38,263.52,106.81c-14.7,10.84-37.24,6.47-50.88,18.62-8.84,7.88-11.47,20.71-19.15,29.73-11.29,13.26-30.62,15.56-48,16.26s-36.41,1.31-49.59,12.69C84.49,193.94,80,209.87,69.05,220.19c-10.34,9.73-24.88,13.13-38.31,17.72-27.67,9.45-55.29,28.35-61.6,56.9C-36.37,319.76-22,347.63,1.55,357.6h531V-31.59Z" transform="translate(32.53 32.09)"/><path class="cls-3" d="M96,307.25C78.75,292.11,79.67,262.69,94.3,245s39.2-24.77,62.15-23.52c19.16,1.05,37.85,7.12,57,7.35s40.57-7.46,48.05-25.13c5.44-12.85,2.38-28.17,8.21-40.85,6.37-13.85,21.89-21.18,36.87-24s30.52-2.4,45.28-6.25,29.47-13.56,33-28.41C389,86.39,376.14,69.59,364,56S338.65,26.08,342.11,8.2c3.14-16.21,19-26.7,34.54-32.35H549.17v318Z" transform="translate(32.53 32.09)"/><path class="cls-3" d="M410.2-7.44c-16.35,16.06-19.12,44.09-6.22,63,8.34,12.24,21.61,20.05,32.33,30.28s19.27,25.6,14.08,39.47c-5.77,15.39-24.55,20.48-40.63,23.88s-34.85,9.73-39,25.63c-3.7,14,5.49,31.76-4.71,42.08-7.66,7.77-20.55,4.91-31,1.72s-23.66-5.4-30.64,3c-4.13,4.95-4.42,12-6.64,18-5.21,14.24-21.19,22.22-36.35,22.68s-29.79-5.07-43.93-10.56-28.71-11.11-43.87-10.85c-27.86.48-53.53,23.74-56.76,51.42s16.4,56.22,43.41,63.1l370.09-31.3V-13.8Z" transform="translate(32.53 32.09)"/><path class="cls-3" d="M216.7,309.56c22.19-29.06,60.4-45,96.67-40.39,12,1.54,23.72,5.15,35.78,6.31s25.11-.49,34.43-8.23c10.36-8.58,14.06-22.7,22-33.54,10.58-14.43,27.81-22.07,42.19-32.72,35-25.92,52.65-76.1,34.47-115.65C474,67.47,459.68,53.06,450.84,35.49S440.36-6.23,455.32-19h98.29V304.6Z" transform="translate(32.53 32.09)"/></g></g></svg>