<?xml version="1.0" encoding="utf-8"?>
<!-- Generator: Adobe Illustrator 24.0.2, SVG Export Plug-In . SVG Version: 6.00 Build 0)  -->
<svg version="1.1" id="Layer_1" xmlns="http://www.w3.org/2000/svg" xmlns:xlink="http://www.w3.org/1999/xlink" x="0px" y="0px"
	 viewBox="0 0 576 288" style="enable-background:new 0 0 576 288;" xml:space="preserve">
<style type="text/css">
	.st0{fill:#00ADB5;}
</style>
<g>
	<path class="st0" d="M763.76,203.52l-26.14-74.53c0.48-0.23,0.75-0.76,0.61-1.29c-0.15-0.61-0.76-0.98-1.37-0.83
		c-0.61,0.15-0.98,0.76-0.83,1.37c0.04,0.16,0.11,0.3,0.21,0.42l-25.04,24.03c-0.27-0.23-0.63-0.33-1-0.24
		c-0.57,0.14-0.93,0.69-0.84,1.26l-91.54,23.64c-0.2-0.53-0.76-0.84-1.33-0.7c-0.48,0.12-0.8,0.52-0.85,0.99l-107.19,0.65
		c-0.01-0.05-0.01-0.1-0.02-0.15c-0.15-0.61-0.76-0.98-1.37-0.83c-0.6,0.15-0.96,0.74-0.83,1.34l-65.95,21.9
		c-0.22-0.49-0.76-0.76-1.3-0.63c-0.61,0.15-0.98,0.76-0.83,1.37c0.02,0.08,0.04,0.15,0.08,0.22l-27.65,16.99
		c-0.27-0.34-0.72-0.52-1.17-0.41c-0.54,0.13-0.89,0.63-0.86,1.16l-76.1,12.15c-0.16-0.59-0.76-0.95-1.36-0.8
		c-0.61,0.15-0.98,0.76-0.83,1.37c0.01,0.04,0.03,0.08,0.04,0.12l-56.44,28.03c-0.25-0.4-0.74-0.61-1.22-0.49
		c-0.53,0.13-0.88,0.62-0.86,1.14l-19.58,2.86c-0.15-0.6-0.76-0.97-1.37-0.82c-0.58,0.14-0.93,0.7-0.84,1.28l-51.62,13.97
		c-0.2-0.52-0.76-0.83-1.32-0.69c-0.61,0.15-0.98,0.76-0.83,1.37c0.06,0.23,0.18,0.43,0.35,0.58l-46.52,65.72
		c-0.24-0.14-0.53-0.19-0.82-0.11c-0.61,0.15-0.98,0.76-0.83,1.37c0.15,0.61,0.76,0.98,1.37,0.83c0.56-0.14,0.92-0.68,0.85-1.24
		l23.9-5.69c0.19,0.54,0.76,0.86,1.33,0.72c0.55-0.14,0.9-0.66,0.85-1.21l21.35-4.4c0.18,0.56,0.76,0.9,1.35,0.76
		c0.52-0.13,0.87-0.6,0.86-1.12l75.31-9.56c0,0,0,0.01,0,0.01c0.15,0.61,0.76,0.98,1.37,0.83c0.47-0.12,0.79-0.5,0.85-0.95
		l137.79,3.46c0,0.06,0.01,0.12,0.03,0.18c0.15,0.61,0.76,0.98,1.37,0.83c0.52-0.13,0.87-0.6,0.86-1.12l71.8-8.82
		c0,0.01,0,0.01,0,0.02c0.15,0.61,0.76,0.98,1.37,0.83c0.61-0.15,0.98-0.76,0.83-1.37c-0.03-0.13-0.09-0.24-0.15-0.34l63.23-51.51
		c0.27,0.27,0.67,0.4,1.07,0.3c0.44-0.11,0.76-0.47,0.84-0.89l87.45,7.06c0,0.08,0.01,0.16,0.03,0.24c0.15,0.61,0.76,0.98,1.37,0.83
		c0.56-0.14,0.91-0.67,0.85-1.23l88.71-19.97c0.19,0.55,0.76,0.88,1.34,0.74c0.61-0.15,0.98-0.76,0.83-1.37
		c-0.07-0.27-0.23-0.49-0.44-0.64l26.62-46.82c0.22,0.1,0.47,0.13,0.72,0.07c0.61-0.15,0.98-0.76,0.83-1.37
		C764.96,203.74,764.36,203.37,763.76,203.52z M150.26,345.16l46.52-65.72c0.02,0.01,0.04,0.02,0.06,0.03l-21,59.23
		c-0.17-0.04-0.35-0.05-0.53,0c-0.56,0.14-0.92,0.68-0.84,1.24l-23.9,5.69C150.51,345.45,150.4,345.29,150.26,345.16z
		 M416.44,327.52c-0.08,0.02-0.16,0.05-0.23,0.09l-23.95-37.7l-5.42-8.54c0.34-0.27,0.51-0.71,0.4-1.16
		c-0.01-0.06-0.04-0.11-0.06-0.16l51.45-27.94c0.12,0.18,0.3,0.32,0.5,0.4l-22.21,74.99C416.76,327.48,416.6,327.48,416.44,327.52z
		 M671.28,191.07l-23.47,13.55c-0.26-0.36-0.73-0.55-1.19-0.43c-0.18,0.05-0.34,0.14-0.47,0.25l-28.48-26.02
		c0.07-0.09,0.12-0.19,0.16-0.3l53.36,12.35c-0.02,0.13-0.01,0.27,0.02,0.41C671.23,190.95,671.26,191.01,671.28,191.07z
		 M645.85,272.82l26.23-81.11c0.16,0.03,0.33,0.04,0.5-0.01c0.37-0.09,0.65-0.35,0.78-0.68l18.08,5.04l23.29,6.49
		c-0.03,0.15-0.02,0.3,0.02,0.46c0.04,0.17,0.12,0.32,0.22,0.44l-68.88,69.51C646.02,272.91,645.94,272.86,645.85,272.82z
		 M709.75,154.41c0.2,0.17,0.46,0.26,0.73,0.26l5.13,46.97c-0.01,0-0.02,0-0.03,0c-0.37,0.09-0.65,0.35-0.78,0.68l-41.37-11.53
		c0.02-0.15,0.02-0.3-0.02-0.46c-0.04-0.16-0.11-0.3-0.21-0.43l27.14-26.36L709.75,154.41z M645.8,205.53c0,0.01,0,0.02,0,0.02
		c0.02,0.09,0.06,0.18,0.1,0.26l-89.34,60.07c-0.24-0.29-0.61-0.44-1-0.39l-7.64-33.39l-3.18-13.91c0.47-0.16,0.77-0.6,0.76-1.08
		l66.18-7.64L645.8,205.53z M277.62,324.48L348.67,265c0.27,0.26,0.66,0.38,1.06,0.29c0.31-0.08,0.56-0.28,0.71-0.53l34.62,15.39
		c-0.06,0.19-0.08,0.41-0.02,0.62c0,0.01,0.01,0.03,0.01,0.04l-107.38,43.77C277.66,324.54,277.64,324.51,277.62,324.48z
		 M438.71,250.73c-0.23,0.27-0.34,0.64-0.25,1.02c0.01,0.06,0.04,0.11,0.06,0.16l-51.45,27.94c-0.11-0.16-0.25-0.28-0.42-0.36
		l5.71-14.86l17.04-44.34c0.18,0.05,0.37,0.06,0.56,0.01c0.15-0.04,0.29-0.1,0.41-0.19l0.4,0.44L438.71,250.73z M408.86,219.96
		c0.09,0.1,0.2,0.18,0.31,0.24l-22.75,59.2c-0.18-0.05-0.37-0.06-0.56-0.01c-0.31,0.08-0.56,0.28-0.71,0.53l-34.62-15.39
		c0.06-0.19,0.08-0.41,0.02-0.62c-0.03-0.11-0.07-0.21-0.13-0.3l12.15-9.08L408.86,219.96z M273.11,261.83
		c0.03,0,0.06-0.01,0.09-0.01c0.46-0.11,0.78-0.49,0.85-0.93l74.29,3.37c0,0.07,0.01,0.14,0.03,0.2c0.03,0.13,0.09,0.25,0.16,0.36
		l-67.07,56.15l-3.98,3.33c-0.2-0.19-0.45-0.3-0.73-0.31l-2.18-37.35L273.11,261.83z M440.59,251.01c-0.17-0.37-0.52-0.62-0.92-0.66
		l-0.29-48.21c0.05-0.01,0.1-0.01,0.15-0.02c0.42-0.1,0.71-0.42,0.82-0.81l102.92,15.76c0,0.09,0,0.19,0.02,0.29l-1.43,0.47
		L440.59,251.01z M646.99,206.41c0.06,0,0.12-0.01,0.18-0.03c0.61-0.15,0.98-0.76,0.83-1.37c-0.02-0.07-0.04-0.13-0.07-0.19
		l3.72-2.15l19.75-11.4c0.12,0.16,0.28,0.28,0.46,0.36l-26.23,81.11c-0.03-0.01-0.06-0.01-0.09-0.02l1.36-61.98L646.99,206.41z
		 M716.98,202.67c0-0.07-0.01-0.13-0.03-0.2c-0.13-0.52-0.59-0.86-1.1-0.86l-3.91-35.77l-1.22-11.19c0.01,0,0.02,0,0.03,0
		c0.18-0.04,0.33-0.13,0.46-0.24l35.26,33.63l16.66,15.89c-0.12,0.15-0.2,0.33-0.23,0.52l-21.21-0.82L716.98,202.67z M709.59,154.24
		l-24.8,24.08l-11.75,11.41c-0.27-0.22-0.63-0.32-0.99-0.23c-0.39,0.1-0.67,0.38-0.8,0.73l-53.36-12.35c0.01-0.1,0.01-0.2-0.01-0.3
		l91.54-23.64C709.46,154.05,709.52,154.16,709.59,154.24z M615.84,178.39c0.26,0.38,0.73,0.57,1.2,0.46
		c0.18-0.05,0.34-0.14,0.47-0.25l28.48,26.02c-0.14,0.19-0.22,0.43-0.22,0.68l-81.44,9.41l-18.84,2.18c0-0.01,0-0.02,0-0.02
		c-0.01-0.06-0.04-0.11-0.06-0.16l32.09-17.46L615.84,178.39z M507.61,179.51c0.16-0.04,0.3-0.11,0.42-0.2l17.12,17.89l18.37,19.2
		c-0.11,0.13-0.18,0.28-0.23,0.44l-102.92-15.76c0-0.1,0-0.19-0.02-0.29l65.95-21.9C506.53,179.37,507.07,179.65,507.61,179.51z
		 M408.72,219.77l-58.43,43.65c-0.27-0.29-0.68-0.44-1.1-0.33c-0.06,0.01-0.11,0.04-0.17,0.06l-17-30.53
		c0.31-0.22,0.5-0.59,0.48-0.98l76.1-12.15C408.62,219.59,408.66,219.68,408.72,219.77z M272.87,261.84l3.63,62.15
		c-0.03,0-0.06,0.01-0.09,0.01c-0.02,0-0.03,0.01-0.05,0.02l-24.7-59.14c0.37-0.21,0.61-0.6,0.59-1.03l19.58-2.86
		C271.95,261.49,272.38,261.82,272.87,261.84z M250.35,264.74L211.39,318l-11.69,15.97c-0.15-0.08-0.31-0.13-0.48-0.15l-1.73-54.25
		c0.04-0.01,0.08-0.01,0.12-0.02c0.58-0.14,0.93-0.7,0.84-1.28l51.62-13.97C250.13,264.48,250.23,264.62,250.35,264.74z
		 M176.08,338.78l21-59.23c0.06,0.01,0.12,0.02,0.18,0.03l1,31.22l0.73,23.03c-0.04,0.01-0.08,0.01-0.12,0.02
		c-0.55,0.14-0.9,0.66-0.85,1.21l-21.35,4.4C176.57,339.15,176.35,338.91,176.08,338.78z M440.69,251.5c0-0.09,0-0.17-0.02-0.26
		l41.68-13.66l61.01-19.99c0.2,0.45,0.67,0.71,1.16,0.66l10.82,47.3c-0.37,0.13-0.64,0.44-0.73,0.8l-109.62-14.28L440.69,251.5z
		 M646.27,273.13l15.81-15.95l53.07-53.56c0.27,0.21,0.62,0.31,0.98,0.22c0.01,0,0.02-0.01,0.04-0.01l19.6,48.56
		c-0.41,0.22-0.64,0.66-0.59,1.13l-88.71,19.97C646.41,273.36,646.35,273.24,646.27,273.13z M736.01,252.29
		c-0.01,0-0.02,0.01-0.04,0.01l-19.6-48.56c0.32-0.17,0.54-0.48,0.59-0.83l45.92,1.78c0,0.07,0.01,0.13,0.03,0.2
		c0.07,0.27,0.23,0.49,0.44,0.64l-26.62,46.82C736.52,252.26,736.27,252.23,736.01,252.29z M736.41,128.83
		c0.26,0.22,0.63,0.32,0.99,0.24l26.14,74.53c-0.09,0.04-0.17,0.1-0.24,0.16l-51.92-49.52c0.2-0.26,0.29-0.61,0.21-0.96
		c-0.04-0.16-0.11-0.3-0.21-0.42L736.41,128.83z M615.64,177.88c0.01,0.05,0.01,0.1,0.02,0.15c0.01,0.06,0.04,0.11,0.06,0.16
		l-36.34,19.77l-34.07,18.53c-0.26-0.38-0.73-0.57-1.2-0.46c-0.16,0.04-0.3,0.11-0.42,0.2l-35.5-37.09
		c0.15-0.17,0.24-0.39,0.26-0.62L615.64,177.88z M438.36,201.71c0.19,0.25,0.47,0.4,0.78,0.43l0.29,48.21
		c-0.05,0.01-0.1,0.01-0.15,0.02c-0.15,0.04-0.29,0.1-0.4,0.19l-28.35-30.63c0.23-0.27,0.34-0.64,0.25-1.02
		c-0.02-0.08-0.04-0.15-0.08-0.22L438.36,201.71z M330.42,232.3c0.25,0.4,0.74,0.61,1.22,0.49c0.06-0.01,0.11-0.04,0.17-0.06
		l16.34,29.35l0.66,1.18c-0.25,0.18-0.42,0.45-0.47,0.75l-74.29-3.37c0-0.07-0.01-0.14-0.03-0.2c-0.01-0.04-0.03-0.08-0.04-0.12
		L330.42,232.3z M200.24,334.69c0,0,0-0.01,0-0.01c-0.06-0.23-0.18-0.42-0.34-0.57l50.65-69.23c0.25,0.14,0.54,0.19,0.84,0.12
		c0.02,0,0.03-0.01,0.05-0.02l5.88,14.07l18.82,45.06c-0.37,0.2-0.6,0.59-0.59,1.01L200.24,334.69z M277.8,325.01
		c0-0.06-0.01-0.12-0.03-0.18c0-0.01-0.01-0.03-0.01-0.04l107.38-43.77c0.24,0.44,0.75,0.69,1.27,0.56
		c0.08-0.02,0.16-0.05,0.23-0.09l29.37,46.24c-0.23,0.18-0.38,0.45-0.42,0.74L277.8,325.01z M417.81,328.36c0-0.01,0-0.01,0-0.02
		c-0.09-0.36-0.35-0.64-0.67-0.77l1.04-3.52l21.17-71.47c0.15,0.03,0.32,0.03,0.48-0.01c0.11-0.03,0.21-0.08,0.31-0.13l49.83,66.26
		c-0.23,0.22-0.37,0.52-0.36,0.84L417.81,328.36z M491.53,318.73c-0.27-0.27-0.67-0.4-1.07-0.3c-0.11,0.03-0.21,0.08-0.31,0.13
		l-49.83-66.26c0.16-0.15,0.28-0.35,0.33-0.56l16.77,2.18l97.15,12.66c0,0.1,0,0.2,0.03,0.3c0.03,0.13,0.09,0.24,0.15,0.34
		L491.53,318.73z M556.83,266.58c0-0.08-0.01-0.16-0.03-0.24c-0.02-0.09-0.06-0.18-0.1-0.26l89.34-60.07
		c0.18,0.22,0.44,0.36,0.72,0.4l-1.46,66.32c-0.06,0.01-0.12,0.01-0.18,0.03c-0.44,0.11-0.76,0.47-0.84,0.89L556.83,266.58z"/>
	<path class="st0" d="M726.24,206.71l-29-82.68c0.53-0.25,0.83-0.85,0.68-1.44c-0.17-0.67-0.85-1.08-1.52-0.92s-1.08,0.85-0.92,1.52
		c0.04,0.18,0.12,0.33,0.23,0.47l-27.78,26.66c-0.3-0.25-0.7-0.36-1.11-0.26c-0.63,0.16-1.03,0.77-0.93,1.4l-101.56,26.23
		c-0.22-0.59-0.85-0.93-1.47-0.78c-0.53,0.13-0.89,0.58-0.94,1.09l-118.91,0.72c-0.01-0.05-0.01-0.11-0.02-0.16
		c-0.17-0.67-0.85-1.08-1.52-0.92c-0.66,0.16-1.07,0.82-0.92,1.49l-73.16,24.29c-0.25-0.54-0.85-0.85-1.44-0.7
		c-0.67,0.17-1.08,0.85-0.92,1.52c0.02,0.08,0.05,0.16,0.09,0.24l-30.68,18.85c-0.3-0.38-0.8-0.58-1.3-0.45
		c-0.59,0.15-0.98,0.7-0.95,1.29l-84.42,13.48c-0.18-0.66-0.85-1.06-1.51-0.89c-0.67,0.17-1.08,0.85-0.92,1.52
		c0.01,0.05,0.03,0.09,0.05,0.13l-62.61,31.09c-0.28-0.44-0.82-0.68-1.36-0.55c-0.59,0.15-0.98,0.69-0.95,1.27l-21.72,3.17
		c-0.17-0.67-0.85-1.07-1.52-0.91c-0.64,0.16-1.03,0.78-0.93,1.42l-57.26,15.5c-0.23-0.58-0.85-0.92-1.47-0.77
		c-0.67,0.17-1.08,0.85-0.92,1.52c0.06,0.26,0.2,0.48,0.39,0.64L45.42,363.7c-0.27-0.15-0.59-0.21-0.91-0.13
		c-0.67,0.17-1.08,0.85-0.92,1.52c0.17,0.67,0.85,1.08,1.52,0.92c0.63-0.15,1.02-0.75,0.94-1.38l26.51-6.32
		c0.21,0.6,0.85,0.96,1.48,0.8c0.61-0.15,1-0.73,0.94-1.34l23.69-4.88c0.2,0.62,0.85,1,1.49,0.84c0.58-0.14,0.96-0.67,0.95-1.24
		l83.55-10.61c0,0,0,0.01,0,0.01c0.17,0.67,0.85,1.08,1.52,0.92c0.52-0.13,0.88-0.56,0.94-1.06l152.86,3.84
		c0.01,0.07,0.01,0.13,0.03,0.2c0.17,0.67,0.85,1.08,1.52,0.92c0.58-0.14,0.96-0.67,0.95-1.24l79.65-9.78c0,0.01,0,0.01,0,0.02
		c0.17,0.67,0.85,1.08,1.52,0.92s1.08-0.85,0.92-1.52c-0.03-0.14-0.1-0.27-0.17-0.38l70.14-57.14c0.3,0.3,0.74,0.44,1.18,0.33
		c0.49-0.12,0.84-0.52,0.93-0.99l97.02,7.83c0,0.09,0.01,0.18,0.03,0.27c0.17,0.67,0.85,1.08,1.52,0.92
		c0.62-0.15,1.01-0.74,0.94-1.36l98.41-22.15c0.21,0.61,0.85,0.98,1.49,0.82c0.67-0.17,1.08-0.85,0.92-1.52
		c-0.07-0.3-0.26-0.55-0.49-0.71l29.53-51.95c0.24,0.11,0.52,0.14,0.8,0.07c0.67-0.17,1.08-0.85,0.92-1.52
		C727.58,206.96,726.91,206.55,726.24,206.71z M45.64,363.85l51.61-72.91c0.02,0.01,0.05,0.02,0.07,0.03l-23.29,65.71
		c-0.19-0.05-0.39-0.05-0.59,0c-0.63,0.15-1.02,0.75-0.94,1.38l-26.51,6.32C45.92,364.16,45.8,363.98,45.64,363.85z M366.39,205.18
		c0.05-0.01,0.11-0.01,0.16-0.02c0.46-0.11,0.79-0.47,0.91-0.9l98.19,15.04l15.99,2.45c0,0.11,0,0.21,0.02,0.32l-5.36,1.76
		L367.73,259.4c-0.19-0.41-0.58-0.69-1.02-0.73l-0.02-2.84L366.39,205.18z M623.65,192.9l-26.04,15.04
		c-0.29-0.4-0.81-0.61-1.32-0.48c-0.2,0.05-0.38,0.15-0.53,0.28l-31.6-28.87c0.07-0.1,0.14-0.21,0.18-0.33l59.2,13.7
		c-0.02,0.15-0.01,0.3,0.02,0.45C623.6,192.76,623.62,192.83,623.65,192.9z M563.47,179.34c0.2-0.05,0.38-0.15,0.53-0.28l31.6,28.87
		c-0.16,0.22-0.25,0.48-0.25,0.75L484.1,221.53c0-0.01,0-0.02,0-0.03c-0.02-0.06-0.04-0.12-0.06-0.18l78.11-42.49
		C562.43,179.25,562.95,179.47,563.47,179.34z M667.14,152.53l0.82,7.5l4.87,44.6c-0.01,0-0.02,0-0.04,0.01
		c-0.41,0.1-0.72,0.39-0.86,0.76l-45.9-12.8c0.03-0.16,0.02-0.34-0.02-0.51c-0.04-0.18-0.13-0.34-0.23-0.47l40.55-39.38
		C666.55,152.42,666.84,152.53,667.14,152.53z M674.34,205.77c0-0.07-0.01-0.15-0.03-0.22c-0.14-0.57-0.66-0.95-1.22-0.95
		l-0.51-4.63l-5.19-47.47c0.01,0,0.02,0,0.04-0.01c0.19-0.05,0.36-0.14,0.51-0.26l57.6,54.94c-0.13,0.17-0.22,0.37-0.25,0.58
		l-11.08-0.43L674.34,205.77z M340.93,344.28c-0.09,0.02-0.18,0.06-0.26,0.1l-32.58-51.29c0.37-0.3,0.56-0.79,0.44-1.28
		c-0.02-0.06-0.04-0.12-0.06-0.18l57.08-31c0.14,0.2,0.33,0.35,0.55,0.45l-24.64,83.19C341.29,344.23,341.11,344.23,340.93,344.28z
		 M306.11,292.45L186.99,341c-0.02-0.04-0.04-0.07-0.06-0.1l78.83-65.99c0.3,0.29,0.74,0.43,1.17,0.32
		c0.34-0.09,0.62-0.31,0.78-0.59l38.41,17.07c-0.07,0.22-0.09,0.45-0.03,0.69C306.1,292.42,306.11,292.43,306.11,292.45z
		 M182.02,271.38c0.51-0.13,0.86-0.54,0.94-1.03l82.42,3.74c0,0.08,0.01,0.15,0.03,0.23c0.04,0.15,0.1,0.28,0.18,0.4l-20.37,17.05
		l-58.46,48.94c-0.22-0.21-0.5-0.33-0.81-0.35l-1.57-26.97l-2.45-41.98C181.95,271.39,181.99,271.39,182.02,271.38z M332.87,225.21
		l-25.23,65.68c-0.2-0.05-0.41-0.06-0.62-0.01c-0.34,0.09-0.62,0.31-0.78,0.59l-38.41-17.07c0.07-0.22,0.09-0.45,0.03-0.69
		c-0.03-0.12-0.08-0.23-0.14-0.34l64.82-48.43C332.62,225.06,332.74,225.15,332.87,225.21z M365.37,260.22
		c0.02,0.06,0.04,0.12,0.06,0.18l-57.08,31c-0.12-0.17-0.28-0.31-0.46-0.4l25.23-65.68c0.2,0.05,0.41,0.06,0.62,0.01
		c0.17-0.04,0.32-0.12,0.45-0.21l31.45,33.98C365.38,259.39,365.26,259.8,365.37,260.22z M495.28,275.46l-12-52.47
		c0.52-0.18,0.85-0.66,0.85-1.19l111.25-12.85c0,0.01,0,0.02,0,0.03c0.03,0.1,0.07,0.19,0.11,0.28l-99.11,66.64
		C496.12,275.58,495.71,275.41,495.28,275.46z M595.71,283.76c-0.08-0.07-0.18-0.12-0.27-0.17l29.1-89.98
		c0.18,0.04,0.37,0.04,0.56-0.01c0.41-0.1,0.72-0.39,0.86-0.76l45.89,12.8c-0.03,0.16-0.02,0.34,0.02,0.51
		c0.05,0.19,0.13,0.35,0.25,0.49l-37.94,38.28L595.71,283.76z M666.15,152.05l-40.55,39.38c-0.3-0.25-0.7-0.36-1.1-0.26
		c-0.43,0.11-0.75,0.42-0.88,0.81l-54.1-12.52l-5.1-1.18c0.01-0.11,0.01-0.22-0.01-0.33l101.56-26.23
		C666.01,151.83,666.07,151.95,666.15,152.05z M442.08,180.08c0.17-0.04,0.33-0.12,0.46-0.23L481.92,221
		c-0.12,0.14-0.2,0.31-0.25,0.49L367.49,204c0-0.11,0-0.22-0.02-0.32l73.16-24.29C440.88,179.92,441.48,180.23,442.08,180.08z
		 M332.36,224.74l-64.82,48.43c-0.3-0.32-0.76-0.48-1.22-0.37c-0.07,0.02-0.13,0.04-0.19,0.07l-18.86-33.87
		c0.35-0.25,0.55-0.66,0.53-1.09l84.42-13.48C332.26,224.54,332.31,224.64,332.36,224.74z M181.66,271.41l4.02,68.95
		c-0.03,0.01-0.07,0.01-0.1,0.01c-0.02,0-0.04,0.01-0.06,0.02l-10.75-25.74l-16.65-39.87c0.41-0.23,0.67-0.67,0.65-1.15l21.72-3.17
		C180.64,271.02,181.12,271.39,181.66,271.41z M156.68,274.63l-53.93,73.72l-2.25,3.08c-0.16-0.09-0.35-0.15-0.54-0.16l-0.71-22.15
		l-1.21-38.04c0.04-0.01,0.09-0.01,0.13-0.02c0.64-0.16,1.03-0.78,0.93-1.42l57.26-15.5C156.43,274.33,156.54,274.5,156.68,274.63z
		 M74.28,356.77l23.29-65.71c0.06,0.02,0.13,0.03,0.2,0.03l1.92,60.19c-0.04,0.01-0.09,0.01-0.13,0.02c-0.61,0.15-1,0.73-0.94,1.34
		l-23.69,4.88C74.82,357.17,74.58,356.91,74.28,356.77z M367.83,259.94c0-0.1,0-0.19-0.03-0.29l113.92-37.33
		c0.22,0.5,0.75,0.79,1.29,0.73l2.62,11.46l9.38,41.01c-0.42,0.14-0.71,0.48-0.81,0.89l-88.93-11.59L367.83,259.94z M596.71,209.92
		c0.07-0.01,0.13-0.01,0.2-0.03c0.67-0.17,1.08-0.85,0.92-1.52c-0.02-0.07-0.04-0.14-0.07-0.21l26.04-15.04
		c0.13,0.18,0.31,0.32,0.51,0.4l-29.1,89.98c-0.03-0.01-0.06-0.01-0.1-0.02l0.89-40.45L596.71,209.92z M595.9,283.94l17.99-18.16
		l58.42-58.96c0.29,0.24,0.69,0.34,1.08,0.24c0.01,0,0.03-0.01,0.04-0.01l21.74,53.87c-0.45,0.24-0.71,0.73-0.65,1.25l-98.41,22.15
		C596.06,284.19,595.99,284.05,595.9,283.94z M695.46,260.82c-0.01,0-0.03,0.01-0.04,0.01l-15.83-39.23l-5.91-14.65
		c0.35-0.19,0.6-0.53,0.65-0.92l50.94,1.98c0,0.07,0.01,0.15,0.03,0.22c0.07,0.3,0.26,0.55,0.49,0.71l-29.53,51.95
		C696.02,260.78,695.74,260.75,695.46,260.82z M695.9,123.85c0.29,0.25,0.69,0.36,1.1,0.26l29,82.68c-0.1,0.05-0.19,0.11-0.27,0.18
		l-57.6-54.94c0.22-0.29,0.32-0.68,0.23-1.06c-0.04-0.18-0.12-0.33-0.23-0.47L695.9,123.85z M561.93,178.26
		c0.01,0.05,0.01,0.11,0.02,0.16c0.02,0.06,0.04,0.12,0.06,0.18l-78.11,42.49c-0.29-0.42-0.81-0.64-1.33-0.51
		c-0.18,0.04-0.33,0.12-0.46,0.23l-39.38-41.14c0.16-0.19,0.26-0.43,0.29-0.68L561.93,178.26z M365.25,204.71
		c0.21,0.27,0.52,0.44,0.87,0.48l0.32,53.49c-0.05,0.01-0.11,0.01-0.16,0.02c-0.17,0.04-0.32,0.12-0.45,0.21l-20.77-22.44
		l-10.68-11.54c0.26-0.3,0.38-0.71,0.27-1.13c-0.02-0.08-0.05-0.16-0.09-0.24L365.25,204.71z M245.5,238.64
		c0.28,0.44,0.82,0.68,1.36,0.55c0.07-0.02,0.13-0.04,0.19-0.07l18.86,33.87c-0.28,0.2-0.47,0.5-0.52,0.84l-82.42-3.74
		c0-0.08-0.01-0.15-0.03-0.23c-0.01-0.05-0.03-0.09-0.05-0.13L245.5,238.64z M101.08,352.23c0,0,0-0.01,0-0.01
		c-0.06-0.25-0.2-0.47-0.38-0.63l56.19-76.81c0.27,0.16,0.6,0.22,0.93,0.13c0.02,0,0.04-0.01,0.06-0.02l27.4,65.6
		c-0.41,0.22-0.66,0.66-0.65,1.12L101.08,352.23z M187.13,341.49c-0.01-0.07-0.01-0.13-0.03-0.2c0-0.02-0.01-0.03-0.02-0.05
		l119.12-48.56c0.27,0.49,0.84,0.77,1.4,0.63c0.09-0.02,0.18-0.06,0.26-0.1l32.58,51.29c-0.25,0.2-0.42,0.49-0.46,0.82
		L187.13,341.49z M342.46,345.21c0-0.01,0-0.01,0-0.02c-0.1-0.4-0.38-0.71-0.74-0.85l24.64-83.19c0.17,0.03,0.35,0.03,0.53-0.01
		c0.12-0.03,0.24-0.08,0.34-0.15l55.28,73.51c-0.26,0.24-0.41,0.58-0.4,0.93L342.46,345.21z M424.24,334.52
		c-0.3-0.3-0.74-0.44-1.18-0.33c-0.12,0.03-0.24,0.08-0.34,0.15l-55.28-73.51c0.18-0.17,0.31-0.38,0.36-0.62l66.96,8.72l59.42,7.74
		c0,0.11,0,0.22,0.03,0.33c0.03,0.14,0.1,0.27,0.17,0.38L424.24,334.52z M496.68,276.67c0-0.09-0.01-0.18-0.03-0.27
		c-0.03-0.1-0.07-0.19-0.11-0.28l39.98-26.88l59.13-39.76c0.2,0.24,0.49,0.4,0.8,0.44l-0.88,39.91l-0.74,33.66
		c-0.07,0.01-0.13,0.01-0.2,0.03c-0.49,0.12-0.84,0.52-0.93,0.99L496.68,276.67z"/>
	<g>
		<path class="st0" d="M582.27,220.47c-0.41,0.1-0.65,0.49-0.6,0.9l-17.35,4.13c-0.14-0.39-0.55-0.63-0.96-0.53
			c-0.4,0.1-0.64,0.48-0.6,0.87l-15.5,3.19c-0.13-0.41-0.55-0.65-0.97-0.55c-0.38,0.09-0.61,0.44-0.61,0.81l-54.64,6.94
			c0,0,0-0.01,0-0.01c-0.11-0.44-0.55-0.71-0.99-0.6c-0.34,0.08-0.57,0.37-0.61,0.69l-99.95-2.51c0-0.04,0.01-0.09-0.01-0.13
			c-0.11-0.44-0.55-0.71-0.99-0.6c-0.38,0.09-0.61,0.44-0.61,0.81l-52.09,6.4c0,0,0-0.01,0-0.01c-0.11-0.44-0.55-0.71-0.99-0.6
			c-0.44,0.11-0.71,0.55-0.6,0.99c0.02,0.09,0.07,0.17,0.12,0.25l-45.87,37.37c-0.2-0.19-0.48-0.29-0.76-0.22
			c-0.32,0.08-0.55,0.34-0.61,0.65l-63.45-5.12c0-0.06,0.01-0.12-0.01-0.18c-0.11-0.44-0.55-0.71-0.99-0.6
			c-0.4,0.1-0.65,0.49-0.6,0.89l-64.36,14.49c-0.14-0.4-0.55-0.64-0.96-0.54c-0.44,0.11-0.71,0.55-0.6,0.99
			c0.05,0.2,0.17,0.35,0.32,0.46l-19.32,33.98c-0.16-0.07-0.34-0.1-0.52-0.06c-0.44,0.11-0.71,0.55-0.6,0.99
			c0.11,0.44,0.55,0.7,0.98,0.6l18.96,54.08c-0.34,0.16-0.55,0.54-0.45,0.92c0.11,0.44,0.55,0.71,0.99,0.6
			c0.44-0.11,0.71-0.55,0.6-0.99c-0.03-0.11-0.08-0.22-0.15-0.3l18.17-17.44c0.19,0.16,0.45,0.24,0.72,0.18
			c0.41-0.1,0.66-0.5,0.6-0.91l66.41-17.15c0.15,0.38,0.55,0.61,0.95,0.51c0.35-0.09,0.58-0.38,0.61-0.72l77.76-0.47
			c0,0.04,0,0.07,0,0.11c0.11,0.44,0.55,0.71,0.99,0.6c0.43-0.11,0.69-0.54,0.6-0.97l47.85-15.89c0.16,0.35,0.54,0.56,0.93,0.46
			c0.44-0.11,0.71-0.55,0.6-0.99c-0.01-0.06-0.05-0.1-0.07-0.15l20.07-12.33c0.19,0.25,0.52,0.38,0.85,0.3
			c0.39-0.1,0.63-0.45,0.61-0.84l55.21-8.81c0.12,0.43,0.55,0.69,0.99,0.58c0.44-0.11,0.71-0.55,0.6-0.99
			c-0.01-0.03-0.03-0.05-0.04-0.08l40.95-20.33c0.18,0.29,0.53,0.45,0.88,0.36c0.38-0.1,0.62-0.45,0.61-0.83l14.22-2.08
			c0.11,0.44,0.55,0.7,0.99,0.59c0.42-0.1,0.67-0.51,0.6-0.92l37.46-10.14c0.15,0.38,0.54,0.6,0.95,0.5
			c0.44-0.11,0.71-0.55,0.6-0.99c-0.04-0.17-0.14-0.3-0.26-0.41l33.75-47.68c0.18,0.1,0.39,0.14,0.6,0.08
			c0.44-0.11,0.71-0.55,0.6-0.99C583.16,220.63,582.71,220.36,582.27,220.47z M450.1,303.51c-0.23,0.16-0.35,0.43-0.33,0.71
			l-55.21,8.81c-0.02-0.07-0.06-0.14-0.09-0.2l42.4-31.67c0.2,0.21,0.49,0.32,0.79,0.25c0.04-0.01,0.08-0.04,0.12-0.06l6.48,11.64
			L450.1,303.51z M492.76,282.33c-0.33,0.08-0.57,0.36-0.61,0.67l-53.9-2.44c0-0.05,0.01-0.1-0.01-0.15
			c-0.02-0.1-0.07-0.18-0.12-0.26l51.55-43.15c0.14,0.14,0.32,0.22,0.52,0.23l2.13,36.51l0.5,8.58
			C492.8,282.34,492.78,282.33,492.76,282.33z M489.56,236.88l-8.41,7.04l-43.14,36.11c-0.2-0.19-0.47-0.29-0.76-0.22
			c-0.23,0.06-0.4,0.2-0.51,0.39l-0.05-0.02l-25.07-11.14c0.05-0.14,0.07-0.29,0.03-0.44c0-0.01-0.01-0.02-0.01-0.03l77.9-31.75
			C489.54,236.83,489.54,236.86,489.56,236.88z M388.52,234.68c0.11,0.02,0.23,0.02,0.35-0.01c0.06-0.01,0.11-0.05,0.16-0.08
			l21.31,33.55c-0.24,0.19-0.37,0.52-0.29,0.84c0.01,0.04,0.04,0.07,0.05,0.11l-9.59,5.21l-27.75,15.07
			c-0.09-0.13-0.22-0.22-0.36-0.28l4.29-14.47L388.52,234.68z M372.01,290.64l0.21,34.99c-0.04,0-0.07,0-0.11,0
			c-0.3,0.07-0.51,0.31-0.58,0.59l-74.66-11.44c0-0.07,0.01-0.14-0.01-0.21l74.5-24.41C371.48,290.43,371.72,290.61,372.01,290.64z
			 M295.31,315.06l-51.08,27.79c-0.19-0.27-0.53-0.42-0.87-0.33c-0.13,0.03-0.24,0.1-0.34,0.19l-4.91-4.49l-15.76-14.4
			c0.1-0.14,0.15-0.31,0.15-0.49l72.75-8.4c0,0.01,0,0.01,0,0.02C295.27,314.99,295.3,315.02,295.31,315.06z M222.47,274.34
			l-19.03,58.84c-0.12-0.02-0.24-0.03-0.36,0c-0.27,0.07-0.46,0.26-0.55,0.5l-30.02-8.37c0.02-0.11,0.02-0.22-0.01-0.33
			c-0.03-0.12-0.09-0.23-0.16-0.32l12.9-13.01l37.07-37.41C222.35,274.28,222.41,274.32,222.47,274.34z M175.59,360.06l-3.72-34.08
			c0.01,0,0.02,0,0.02,0c0.27-0.07,0.46-0.26,0.55-0.5l30.02,8.37c-0.02,0.11-0.02,0.22,0.01,0.33c0.03,0.12,0.08,0.22,0.15,0.31
			l-20.4,19.81l-6.12,5.95C175.96,360.12,175.79,360.06,175.59,360.06z M222.42,322.96l64.81-43.58c0.17,0.21,0.44,0.31,0.72,0.28
			l7.85,34.32c-0.33,0.12-0.54,0.43-0.54,0.77l-50.74,5.86l-22.01,2.54c0-0.01,0-0.01,0-0.02
			C222.49,323.07,222.45,323.02,222.42,322.96z M371.29,290l-74.5,24.41c-0.15-0.32-0.47-0.51-0.83-0.47l-7.85-34.32
			c0.27-0.09,0.46-0.31,0.52-0.58l82.64,10.77C371.28,289.88,371.28,289.94,371.29,290z M204.01,333.66l17.04-9.84
			c0.19,0.26,0.53,0.4,0.86,0.31c0.13-0.03,0.24-0.1,0.34-0.19l20.67,18.88c-0.05,0.07-0.08,0.14-0.11,0.21l-38.72-8.96
			c0.01-0.1,0.01-0.2-0.01-0.3C204.06,333.74,204.03,333.7,204.01,333.66z M170.89,325.23c0,0.05-0.01,0.09,0.01,0.14
			c0.09,0.37,0.43,0.61,0.8,0.61l3.72,34.08c-0.01,0-0.02,0-0.02,0c-0.13,0.03-0.23,0.1-0.33,0.18l-37.67-35.93
			c0.08-0.11,0.15-0.23,0.17-0.37l6.45,0.25L170.89,325.23z M372.7,290.36c0.17-0.2,0.26-0.46,0.19-0.73
			c-0.01-0.04-0.04-0.07-0.05-0.11l37.33-20.27c0.08,0.11,0.18,0.2,0.3,0.26l-16.5,42.95c-0.13-0.03-0.27-0.05-0.41-0.01
			c-0.11,0.03-0.21,0.08-0.29,0.14l-12.22-13.21L372.7,290.36z M394.35,312.7c-0.07-0.07-0.14-0.13-0.22-0.17l11.38-29.63
			l5.12-13.33c0.13,0.03,0.27,0.05,0.41,0.01c0.23-0.06,0.4-0.2,0.51-0.39l25.13,11.17c-0.05,0.14-0.07,0.29-0.03,0.44
			c0.02,0.08,0.06,0.15,0.1,0.21l-21.68,16.2L394.35,312.7z M221.64,322.53c-0.04,0-0.09-0.01-0.13,0.01
			c-0.44,0.11-0.71,0.55-0.6,0.99c0.01,0.05,0.04,0.08,0.06,0.13l-17.04,9.84c-0.09-0.12-0.2-0.2-0.33-0.26l19.03-58.84
			c0.02,0,0.04,0.01,0.06,0.01l-0.65,29.66L221.64,322.53z M222.17,274.12l-49.97,50.43c-0.19-0.15-0.44-0.23-0.7-0.17
			c-0.01,0-0.02,0.01-0.03,0.01l-14.22-35.24c0.29-0.16,0.46-0.47,0.42-0.8l64.36-14.49C222.06,273.96,222.11,274.05,222.17,274.12z
			 M157.07,289.24c0.01,0,0.02-0.01,0.03-0.01l14.22,35.24c-0.23,0.12-0.39,0.34-0.43,0.59l-33.32-1.29c0-0.05,0.01-0.09-0.01-0.14
			c-0.05-0.2-0.17-0.35-0.32-0.46l19.32-33.98C156.71,289.26,156.89,289.29,157.07,289.24z M176.24,360.36l26.52-25.76
			c0.19,0.16,0.45,0.24,0.71,0.18c0.28-0.07,0.48-0.28,0.56-0.53l38.72,8.96c-0.01,0.07,0,0.14,0.01,0.22l-66.41,17.15
			C176.32,360.5,176.29,360.42,176.24,360.36z M322.74,342.03c-0.11,0.03-0.22,0.08-0.3,0.15l-25.76-26.91
			c0.08-0.09,0.13-0.2,0.17-0.31l74.66,11.44c0,0.07-0.01,0.14,0.01,0.21l-47.85,15.89C323.5,342.14,323.12,341.93,322.74,342.03z
			 M493,282.32l-2.63-45.1c0.02,0,0.04,0,0.06,0c0.01,0,0.02-0.01,0.03-0.02l17.92,42.91c-0.27,0.15-0.43,0.43-0.42,0.74
			l-14.22,2.08C493.66,282.57,493.35,282.34,493,282.32z M563.21,226.5l-15.23,42.97c-0.04-0.01-0.08-0.02-0.13-0.02l-1.2-37.54
			l-0.06-1.83c0.03,0,0.06,0,0.09,0c0.4-0.1,0.64-0.48,0.6-0.87l15.5-3.19C562.85,226.24,563.01,226.41,563.21,226.5z
			 M509.32,280.23L546.07,230c0.11,0.06,0.23,0.09,0.35,0.1l1.26,39.37c-0.03,0-0.06,0-0.09,0c-0.42,0.1-0.67,0.51-0.6,0.92
			l-37.46,10.14C509.48,280.41,509.41,280.31,509.32,280.23z M548.13,269.53l15.23-42.97c0.12,0.03,0.25,0.04,0.39,0.01
			c0.41-0.1,0.65-0.49,0.6-0.9l17.35-4.13c0.05,0.13,0.13,0.24,0.23,0.33l-33.75,47.68C548.17,269.54,548.15,269.54,548.13,269.53z
			 M545.68,229.48C545.68,229.48,545.68,229.48,545.68,229.48c0.04,0.17,0.14,0.3,0.25,0.41l-36.75,50.23
			c-0.18-0.1-0.39-0.14-0.61-0.09c-0.01,0-0.02,0.01-0.03,0.02l-17.92-42.91c0.26-0.15,0.42-0.42,0.42-0.72L545.68,229.48z
			 M489.43,236.5c0,0.04-0.01,0.09,0.01,0.13c0,0.01,0.01,0.02,0.01,0.03l-77.9,31.75c-0.17-0.32-0.54-0.51-0.91-0.41
			c-0.06,0.01-0.11,0.05-0.16,0.08l-21.31-33.55c0.17-0.13,0.27-0.32,0.3-0.53L489.43,236.5z M387.87,234.06c0,0,0,0.01,0,0.01
			c0.06,0.26,0.25,0.45,0.49,0.55l-16.12,54.41c-0.11-0.02-0.23-0.02-0.35,0.01c-0.08,0.02-0.15,0.06-0.22,0.1l-36.15-48.07
			c0.17-0.16,0.26-0.37,0.25-0.6L387.87,234.06z M334.41,241.05c0.2,0.19,0.48,0.29,0.76,0.22c0.08-0.02,0.15-0.06,0.22-0.1
			l36.15,48.07c-0.12,0.11-0.2,0.25-0.24,0.4l-82.64-10.77c0-0.07,0.01-0.14-0.01-0.22c-0.02-0.09-0.07-0.17-0.12-0.25
			L334.41,241.05z M287.05,278.88c0,0.06-0.01,0.12,0.01,0.18c0.02,0.07,0.05,0.12,0.08,0.18l-64.81,43.58
			c-0.13-0.16-0.31-0.26-0.52-0.29l0.67-30.38l0.39-17.73c0.04,0,0.09,0.01,0.13-0.01c0.32-0.08,0.55-0.34,0.61-0.65L287.05,278.88z
			 M156.78,378.8c-0.19-0.16-0.45-0.24-0.71-0.18l-18.96-54.08c0.06-0.03,0.13-0.06,0.18-0.11l37.67,35.93
			c-0.15,0.19-0.22,0.44-0.16,0.69c0.03,0.11,0.08,0.22,0.15,0.3L156.78,378.8z M244.36,343.22c0-0.04,0-0.07,0-0.11
			c-0.01-0.04-0.04-0.07-0.05-0.11l51.08-27.79c0.19,0.27,0.53,0.42,0.87,0.33c0.11-0.03,0.22-0.08,0.3-0.15l25.76,26.91
			c-0.11,0.13-0.18,0.27-0.19,0.44L244.36,343.22z M372.96,325.93c-0.14-0.18-0.34-0.29-0.57-0.31l-0.21-34.99c0.04,0,0.07,0,0.11,0
			c0.11-0.03,0.21-0.08,0.29-0.14l20.57,22.23c-0.17,0.2-0.26,0.46-0.19,0.73c0.01,0.06,0.05,0.1,0.07,0.15L372.96,325.93z
			 M451.25,303.75c-0.18-0.29-0.53-0.45-0.88-0.36c-0.04,0.01-0.08,0.04-0.12,0.06l-2.72-4.88l-9.62-17.28
			c0.18-0.13,0.31-0.32,0.34-0.54l53.9,2.44c0,0.05-0.01,0.1,0.01,0.15c0.01,0.03,0.03,0.05,0.04,0.08L451.25,303.75z"/>
		<path class="st0" d="M582.27,220.47c-0.41,0.1-0.65,0.49-0.6,0.9l-17.35,4.13c-0.14-0.39-0.55-0.63-0.96-0.53
			c-0.4,0.1-0.64,0.48-0.6,0.87l-15.5,3.19c-0.13-0.41-0.55-0.65-0.97-0.55c-0.38,0.09-0.61,0.44-0.61,0.81l-54.64,6.94
			c0,0,0-0.01,0-0.01c-0.11-0.44-0.55-0.71-0.99-0.6c-0.34,0.08-0.57,0.37-0.61,0.69l-99.95-2.51c0-0.04,0.01-0.09-0.01-0.13
			c-0.11-0.44-0.55-0.71-0.99-0.6c-0.38,0.09-0.61,0.44-0.61,0.81l-52.09,6.4c0,0,0-0.01,0-0.01c-0.11-0.44-0.55-0.71-0.99-0.6
			c-0.44,0.11-0.71,0.55-0.6,0.99c0.02,0.09,0.07,0.17,0.12,0.25l-45.87,37.37c-0.2-0.19-0.48-0.29-0.76-0.22
			c-0.32,0.08-0.55,0.34-0.61,0.65l-63.45-5.12c0-0.06,0.01-0.12-0.01-0.18c-0.11-0.44-0.55-0.71-0.99-0.6
			c-0.4,0.1-0.65,0.49-0.6,0.89l-64.36,14.49c-0.14-0.4-0.55-0.64-0.96-0.54c-0.44,0.11-0.71,0.55-0.6,0.99
			c0.05,0.2,0.17,0.35,0.32,0.46l-19.32,33.98c-0.16-0.07-0.34-0.1-0.52-0.06c-0.44,0.11-0.71,0.55-0.6,0.99
			c0.11,0.44,0.55,0.7,0.98,0.6l18.96,54.08c-0.34,0.16-0.55,0.54-0.45,0.92c0.11,0.44,0.55,0.71,0.99,0.6
			c0.44-0.11,0.71-0.55,0.6-0.99c-0.03-0.11-0.08-0.22-0.15-0.3l18.17-17.44c0.19,0.16,0.45,0.24,0.72,0.18
			c0.41-0.1,0.66-0.5,0.6-0.91l66.41-17.15c0.15,0.38,0.55,0.61,0.95,0.51c0.35-0.09,0.58-0.38,0.61-0.72l77.76-0.47
			c0,0.04,0,0.07,0,0.11c0.11,0.44,0.55,0.71,0.99,0.6c0.43-0.11,0.69-0.54,0.6-0.97l47.85-15.89c0.16,0.35,0.54,0.56,0.93,0.46
			c0.44-0.11,0.71-0.55,0.6-0.99c-0.01-0.06-0.05-0.1-0.07-0.15l20.07-12.33c0.19,0.25,0.52,0.38,0.85,0.3
			c0.39-0.1,0.63-0.45,0.61-0.84l55.21-8.81c0.12,0.43,0.55,0.69,0.99,0.58c0.44-0.11,0.71-0.55,0.6-0.99
			c-0.01-0.03-0.03-0.05-0.04-0.08l40.95-20.33c0.18,0.29,0.53,0.45,0.88,0.36c0.38-0.1,0.62-0.45,0.61-0.83l14.22-2.08
			c0.11,0.44,0.55,0.7,0.99,0.59c0.42-0.1,0.67-0.51,0.6-0.92l37.46-10.14c0.15,0.38,0.54,0.6,0.95,0.5
			c0.44-0.11,0.71-0.55,0.6-0.99c-0.04-0.17-0.14-0.3-0.26-0.41l33.75-47.68c0.18,0.1,0.39,0.14,0.6,0.08
			c0.44-0.11,0.71-0.55,0.6-0.99C583.16,220.63,582.71,220.36,582.27,220.47z M450.1,303.51c-0.23,0.16-0.35,0.43-0.33,0.71
			l-55.21,8.81c-0.02-0.07-0.06-0.14-0.09-0.2l42.4-31.67c0.2,0.21,0.49,0.32,0.79,0.25c0.04-0.01,0.08-0.04,0.12-0.06l6.48,11.64
			L450.1,303.51z M492.76,282.33c-0.33,0.08-0.57,0.36-0.61,0.67l-53.9-2.44c0-0.05,0.01-0.1-0.01-0.15
			c-0.02-0.1-0.07-0.18-0.12-0.26l51.55-43.15c0.14,0.14,0.32,0.22,0.52,0.23l2.13,36.51l0.5,8.58
			C492.8,282.34,492.78,282.33,492.76,282.33z M489.56,236.88l-8.41,7.04l-43.14,36.11c-0.2-0.19-0.47-0.29-0.76-0.22
			c-0.23,0.06-0.4,0.2-0.51,0.39l-0.05-0.02l-25.07-11.14c0.05-0.14,0.07-0.29,0.03-0.44c0-0.01-0.01-0.02-0.01-0.03l77.9-31.75
			C489.54,236.83,489.54,236.86,489.56,236.88z M388.52,234.68c0.11,0.02,0.23,0.02,0.35-0.01c0.06-0.01,0.11-0.05,0.16-0.08
			l21.31,33.55c-0.24,0.19-0.37,0.52-0.29,0.84c0.01,0.04,0.04,0.07,0.05,0.11l-9.59,5.21l-27.75,15.07
			c-0.09-0.13-0.22-0.22-0.36-0.28l4.29-14.47L388.52,234.68z M372.01,290.64l0.21,34.99c-0.04,0-0.07,0-0.11,0
			c-0.3,0.07-0.51,0.31-0.58,0.59l-74.66-11.44c0-0.07,0.01-0.14-0.01-0.21l74.5-24.41C371.48,290.43,371.72,290.61,372.01,290.64z
			 M295.31,315.06l-51.08,27.79c-0.19-0.27-0.53-0.42-0.87-0.33c-0.13,0.03-0.24,0.1-0.34,0.19l-4.91-4.49l-15.76-14.4
			c0.1-0.14,0.15-0.31,0.15-0.49l72.75-8.4c0,0.01,0,0.01,0,0.02C295.27,314.99,295.3,315.02,295.31,315.06z M222.47,274.34
			l-19.03,58.84c-0.12-0.02-0.24-0.03-0.36,0c-0.27,0.07-0.46,0.26-0.55,0.5l-30.02-8.37c0.02-0.11,0.02-0.22-0.01-0.33
			c-0.03-0.12-0.09-0.23-0.16-0.32l12.9-13.01l37.07-37.41C222.35,274.28,222.41,274.32,222.47,274.34z M175.59,360.06l-3.72-34.08
			c0.01,0,0.02,0,0.02,0c0.27-0.07,0.46-0.26,0.55-0.5l30.02,8.37c-0.02,0.11-0.02,0.22,0.01,0.33c0.03,0.12,0.08,0.22,0.15,0.31
			l-20.4,19.81l-6.12,5.95C175.96,360.12,175.79,360.06,175.59,360.06z M222.42,322.96l64.81-43.58c0.17,0.21,0.44,0.31,0.72,0.28
			l7.85,34.32c-0.33,0.12-0.54,0.43-0.54,0.77l-50.74,5.86l-22.01,2.54c0-0.01,0-0.01,0-0.02
			C222.49,323.07,222.45,323.02,222.42,322.96z M371.29,290l-74.5,24.41c-0.15-0.32-0.47-0.51-0.83-0.47l-7.85-34.32
			c0.27-0.09,0.46-0.31,0.52-0.58l82.64,10.77C371.28,289.88,371.28,289.94,371.29,290z M204.01,333.66l17.04-9.84
			c0.19,0.26,0.53,0.4,0.86,0.31c0.13-0.03,0.24-0.1,0.34-0.19l20.67,18.88c-0.05,0.07-0.08,0.14-0.11,0.21l-38.72-8.96
			c0.01-0.1,0.01-0.2-0.01-0.3C204.06,333.74,204.03,333.7,204.01,333.66z M170.89,325.23c0,0.05-0.01,0.09,0.01,0.14
			c0.09,0.37,0.43,0.61,0.8,0.61l3.72,34.08c-0.01,0-0.02,0-0.02,0c-0.13,0.03-0.23,0.1-0.33,0.18l-37.67-35.93
			c0.08-0.11,0.15-0.23,0.17-0.37l6.45,0.25L170.89,325.23z M372.7,290.36c0.17-0.2,0.26-0.46,0.19-0.73
			c-0.01-0.04-0.04-0.07-0.05-0.11l37.33-20.27c0.08,0.11,0.18,0.2,0.3,0.26l-16.5,42.95c-0.13-0.03-0.27-0.05-0.41-0.01
			c-0.11,0.03-0.21,0.08-0.29,0.14l-12.22-13.21L372.7,290.36z M394.35,312.7c-0.07-0.07-0.14-0.13-0.22-0.17l11.38-29.63
			l5.12-13.33c0.13,0.03,0.27,0.05,0.41,0.01c0.23-0.06,0.4-0.2,0.51-0.39l25.13,11.17c-0.05,0.14-0.07,0.29-0.03,0.44
			c0.02,0.08,0.06,0.15,0.1,0.21l-21.68,16.2L394.35,312.7z M221.64,322.53c-0.04,0-0.09-0.01-0.13,0.01
			c-0.44,0.11-0.71,0.55-0.6,0.99c0.01,0.05,0.04,0.08,0.06,0.13l-17.04,9.84c-0.09-0.12-0.2-0.2-0.33-0.26l19.03-58.84
			c0.02,0,0.04,0.01,0.06,0.01l-0.65,29.66L221.64,322.53z M222.17,274.12l-49.97,50.43c-0.19-0.15-0.44-0.23-0.7-0.17
			c-0.01,0-0.02,0.01-0.03,0.01l-14.22-35.24c0.29-0.16,0.46-0.47,0.42-0.8l64.36-14.49C222.06,273.96,222.11,274.05,222.17,274.12z
			 M157.07,289.24c0.01,0,0.02-0.01,0.03-0.01l14.22,35.24c-0.23,0.12-0.39,0.34-0.43,0.59l-33.32-1.29c0-0.05,0.01-0.09-0.01-0.14
			c-0.05-0.2-0.17-0.35-0.32-0.46l19.32-33.98C156.71,289.26,156.89,289.29,157.07,289.24z M176.24,360.36l26.52-25.76
			c0.19,0.16,0.45,0.24,0.71,0.18c0.28-0.07,0.48-0.28,0.56-0.53l38.72,8.96c-0.01,0.07,0,0.14,0.01,0.22l-66.41,17.15
			C176.32,360.5,176.29,360.42,176.24,360.36z M322.74,342.03c-0.11,0.03-0.22,0.08-0.3,0.15l-25.76-26.91
			c0.08-0.09,0.13-0.2,0.17-0.31l74.66,11.44c0,0.07-0.01,0.14,0.01,0.21l-47.85,15.89C323.5,342.14,323.12,341.93,322.74,342.03z
			 M493,282.32l-2.63-45.1c0.02,0,0.04,0,0.06,0c0.01,0,0.02-0.01,0.03-0.02l17.92,42.91c-0.27,0.15-0.43,0.43-0.42,0.74
			l-14.22,2.08C493.66,282.57,493.35,282.34,493,282.32z M563.21,226.5l-15.23,42.97c-0.04-0.01-0.08-0.02-0.13-0.02l-1.2-37.54
			l-0.06-1.83c0.03,0,0.06,0,0.09,0c0.4-0.1,0.64-0.48,0.6-0.87l15.5-3.19C562.85,226.24,563.01,226.41,563.21,226.5z
			 M509.32,280.23L546.07,230c0.11,0.06,0.23,0.09,0.35,0.1l1.26,39.37c-0.03,0-0.06,0-0.09,0c-0.42,0.1-0.67,0.51-0.6,0.92
			l-37.46,10.14C509.48,280.41,509.41,280.31,509.32,280.23z M548.13,269.53l15.23-42.97c0.12,0.03,0.25,0.04,0.39,0.01
			c0.41-0.1,0.65-0.49,0.6-0.9l17.35-4.13c0.05,0.13,0.13,0.24,0.23,0.33l-33.75,47.68C548.17,269.54,548.15,269.54,548.13,269.53z
			 M545.68,229.48C545.68,229.48,545.68,229.48,545.68,229.48c0.04,0.17,0.14,0.3,0.25,0.41l-36.75,50.23
			c-0.18-0.1-0.39-0.14-0.61-0.09c-0.01,0-0.02,0.01-0.03,0.02l-17.92-42.91c0.26-0.15,0.42-0.42,0.42-0.72L545.68,229.48z
			 M489.43,236.5c0,0.04-0.01,0.09,0.01,0.13c0,0.01,0.01,0.02,0.01,0.03l-77.9,31.75c-0.17-0.32-0.54-0.51-0.91-0.41
			c-0.06,0.01-0.11,0.05-0.16,0.08l-21.31-33.55c0.17-0.13,0.27-0.32,0.3-0.53L489.43,236.5z M387.87,234.06c0,0,0,0.01,0,0.01
			c0.06,0.26,0.25,0.45,0.49,0.55l-16.12,54.41c-0.11-0.02-0.23-0.02-0.35,0.01c-0.08,0.02-0.15,0.06-0.22,0.1l-36.15-48.07
			c0.17-0.16,0.26-0.37,0.25-0.6L387.87,234.06z M334.41,241.05c0.2,0.19,0.48,0.29,0.76,0.22c0.08-0.02,0.15-0.06,0.22-0.1
			l36.15,48.07c-0.12,0.11-0.2,0.25-0.24,0.4l-82.64-10.77c0-0.07,0.01-0.14-0.01-0.22c-0.02-0.09-0.07-0.17-0.12-0.25
			L334.41,241.05z M287.05,278.88c0,0.06-0.01,0.12,0.01,0.18c0.02,0.07,0.05,0.12,0.08,0.18l-64.81,43.58
			c-0.13-0.16-0.31-0.26-0.52-0.29l0.67-30.38l0.39-17.73c0.04,0,0.09,0.01,0.13-0.01c0.32-0.08,0.55-0.34,0.61-0.65L287.05,278.88z
			 M156.78,378.8c-0.19-0.16-0.45-0.24-0.71-0.18l-18.96-54.08c0.06-0.03,0.13-0.06,0.18-0.11l37.67,35.93
			c-0.15,0.19-0.22,0.44-0.16,0.69c0.03,0.11,0.08,0.22,0.15,0.3L156.78,378.8z M244.36,343.22c0-0.04,0-0.07,0-0.11
			c-0.01-0.04-0.04-0.07-0.05-0.11l51.08-27.79c0.19,0.27,0.53,0.42,0.87,0.33c0.11-0.03,0.22-0.08,0.3-0.15l25.76,26.91
			c-0.11,0.13-0.18,0.27-0.19,0.44L244.36,343.22z M372.96,325.93c-0.14-0.18-0.34-0.29-0.57-0.31l-0.21-34.99c0.04,0,0.07,0,0.11,0
			c0.11-0.03,0.21-0.08,0.29-0.14l20.57,22.23c-0.17,0.2-0.26,0.46-0.19,0.73c0.01,0.06,0.05,0.1,0.07,0.15L372.96,325.93z
			 M451.25,303.75c-0.18-0.29-0.53-0.45-0.88-0.36c-0.04,0.01-0.08,0.04-0.12,0.06l-2.72-4.88l-9.62-17.28
			c0.18-0.13,0.31-0.32,0.34-0.54l53.9,2.44c0,0.05-0.01,0.1,0.01,0.15c0.01,0.03,0.03,0.05,0.04,0.08L451.25,303.75z"/>
	</g>
</g>
</svg>
