<?xml version="1.0" encoding="UTF-8"?>
<svg xmlns="http://www.w3.org/2000/svg" xmlns:xlink="http://www.w3.org/1999/xlink" width="64pt" height="64pt" viewBox="0 0 64 64" version="1.1">
<g id="surface3078724">
<path style=" stroke:none;fill-rule:nonzero;fill:rgb(13.333333%,15.686275%,19.215686%);fill-opacity:1;" d="M 10 10 L 10 54 L 54 54 L 54 10 Z M 14 14 L 50 14 L 50 50 L 14 50 Z M 22 20 L 22 43.980469 C 33.859375 43.980469 36.234375 44.140625 38.453125 43.480469 C 39.753906 43.082031 43.3125 41.800781 43.3125 37.300781 C 43.3125 35.300781 42.714844 31.917969 38.792969 31.078125 L 38.792969 31.019531 L 38.054688 31.019531 C 40.054688 30.121094 41.3125 28.421875 41.3125 25.921875 C 41.3125 25.28125 41.492188 20 34.492188 20 Z M 26 24 L 34 24 C 37.019531 24 37.3125 25.707031 37.3125 26.980469 C 37.3125 30.089844 34.058594 30 34 30 L 26 30 Z M 26 34 L 35.519531 34 C 39.242188 34 39.3125 36.351562 39.3125 36.960938 C 39.3125 40.082031 36.089844 40 35.699219 40 L 26 40 Z M 26 34 "/>
</g>
</svg>
