<?xml version="1.0" encoding="UTF-8"?>
<svg xmlns="http://www.w3.org/2000/svg" xmlns:xlink="http://www.w3.org/1999/xlink" width="64pt" height="64pt" viewBox="0 0 64 64" version="1.1">
<g id="surface3247307">
<path style=" stroke:none;fill-rule:nonzero;fill:rgb(13.333333%,15.686275%,19.215686%);fill-opacity:1;" d="M 10.4375 8 L 10.625 10.1875 L 14.125 49.75 L 14.25 51.125 L 15.5625 51.5 L 31.4375 55.9375 L 31.9375 56.0625 L 32.5 55.9375 L 48.375 51.5625 L 49.6875 51.1875 L 49.8125 49.8125 L 53.375 10.1875 L 53.5625 8.0625 L 51.375 8.0625 L 12.625 8 Z M 14.8125 12 L 49.1875 12.0625 L 45.9375 48.0625 L 32 51.9375 L 18 48.0625 Z M 19.625 18 L 20.9375 32.9375 L 38.0625 32.9375 L 37.5 39.375 L 32 40.875 L 31.9375 40.875 L 26.4375 39.375 L 26.125 35.25 L 21.125 35.25 L 21.8125 43.1875 L 31.9375 46 L 32 46 L 42.125 43.1875 L 43.5 28 L 25.4375 28 L 25 22.9375 L 43.9375 22.9375 L 44.375 18 Z M 19.625 18 "/>
</g>
</svg>
