<?xml version="1.0" encoding="UTF-8"?>
<svg xmlns="http://www.w3.org/2000/svg" xmlns:xlink="http://www.w3.org/1999/xlink" width="50pt" height="50pt" viewBox="0 0 50 50" version="1.1">
<g id="surface3279498">
<path style=" stroke:none;fill-rule:nonzero;fill:rgb(13.333333%,15.686275%,19.215686%);fill-opacity:1;" d="M 43.03125 27.800781 C 41.28125 27.8125 39.769531 28.230469 38.5 28.855469 C 38.035156 27.929688 37.566406 27.113281 37.488281 26.507812 C 37.394531 25.800781 37.289062 25.378906 37.398438 24.535156 C 37.511719 23.695312 37.996094 22.5 37.988281 22.410156 C 37.984375 22.324219 37.882812 21.894531 36.871094 21.886719 C 35.863281 21.878906 35.003906 22.078125 34.902344 22.347656 C 34.800781 22.613281 34.605469 23.210938 34.484375 23.835938 C 34.308594 24.75 32.472656 28.011719 31.429688 29.714844 C 31.089844 29.050781 30.800781 28.464844 30.738281 28 C 30.648438 27.292969 30.539062 26.871094 30.652344 26.027344 C 30.761719 25.183594 31.25 23.992188 31.242188 23.902344 C 31.234375 23.8125 31.132812 23.382812 30.125 23.375 C 29.117188 23.367188 28.253906 23.570312 28.152344 23.835938 C 28.050781 24.101562 27.941406 24.722656 27.738281 25.324219 C 27.53125 25.929688 25.089844 31.363281 24.449219 32.773438 C 24.125 33.492188 23.84375 34.070312 23.640625 34.464844 C 23.640625 34.460938 23.640625 34.460938 23.640625 34.460938 C 23.640625 34.460938 23.628906 34.488281 23.605469 34.53125 C 23.4375 34.867188 23.335938 35.054688 23.335938 35.054688 C 23.335938 35.054688 23.335938 35.054688 23.335938 35.058594 C 23.199219 35.304688 23.054688 35.535156 22.984375 35.535156 C 22.933594 35.535156 22.832031 34.878906 23.007812 33.980469 C 23.367188 32.09375 24.242188 29.152344 24.234375 29.050781 C 24.230469 29 24.394531 28.488281 23.664062 28.21875 C 22.953125 27.957031 22.699219 28.390625 22.632812 28.394531 C 22.570312 28.394531 22.523438 28.546875 22.523438 28.546875 C 22.523438 28.546875 23.316406 25.238281 21.011719 25.238281 C 19.570312 25.238281 17.574219 26.8125 16.589844 28.242188 C 15.972656 28.578125 14.644531 29.304688 13.234375 30.078125 C 12.691406 30.375 12.140625 30.679688 11.617188 30.96875 C 11.582031 30.929688 11.546875 30.890625 11.507812 30.851562 C 8.714844 27.871094 3.550781 25.761719 3.769531 21.753906 C 3.851562 20.296875 4.355469 16.460938 13.695312 11.808594 C 21.34375 7.996094 27.46875 9.046875 28.523438 11.371094 C 30.035156 14.691406 25.253906 20.863281 17.308594 21.753906 C 14.28125 22.09375 12.6875 20.921875 12.292969 20.484375 C 11.875 20.023438 11.8125 20.003906 11.65625 20.089844 C 11.402344 20.230469 11.5625 20.636719 11.65625 20.878906 C 11.894531 21.496094 12.867188 22.589844 14.527344 23.136719 C 15.988281 23.613281 19.539062 23.878906 23.839844 22.214844 C 28.652344 20.351562 32.410156 15.175781 31.304688 10.84375 C 30.183594 6.441406 22.882812 4.996094 15.972656 7.449219 C 11.863281 8.910156 7.410156 11.203125 4.210938 14.195312 C 0.402344 17.757812 -0.203125 20.855469 0.046875 22.148438 C 0.9375 26.746094 7.277344 29.742188 9.816406 31.964844 C 9.691406 32.03125 9.570312 32.097656 9.464844 32.15625 C 8.191406 32.785156 3.359375 35.316406 2.152344 37.988281 C 0.78125 41.019531 2.367188 43.191406 3.421875 43.484375 C 6.683594 44.394531 10.027344 42.761719 11.824219 40.078125 C 13.625 37.398438 13.402344 33.90625 12.578125 32.3125 C 12.570312 32.292969 12.558594 32.273438 12.546875 32.253906 C 12.875 32.058594 13.210938 31.863281 13.542969 31.667969 C 14.191406 31.285156 14.828125 30.933594 15.378906 30.632812 C 15.070312 31.476562 14.84375 32.492188 14.726562 33.957031 C 14.589844 35.675781 15.292969 37.902344 16.214844 38.777344 C 16.621094 39.160156 17.109375 39.171875 17.421875 39.171875 C 18.496094 39.171875 18.984375 38.277344 19.523438 37.21875 C 20.1875 35.925781 20.773438 34.414062 20.773438 34.414062 C 20.773438 34.414062 20.035156 38.492188 22.042969 38.492188 C 22.773438 38.492188 23.511719 37.542969 23.839844 37.058594 C 23.839844 37.0625 23.839844 37.066406 23.839844 37.066406 C 23.839844 37.066406 23.859375 37.035156 23.894531 36.972656 C 23.972656 36.855469 24.015625 36.78125 24.015625 36.78125 C 24.015625 36.78125 24.015625 36.773438 24.019531 36.761719 C 24.3125 36.25 24.964844 35.085938 25.941406 33.167969 C 27.207031 30.6875 28.417969 27.582031 28.417969 27.582031 C 28.417969 27.582031 28.53125 28.339844 28.898438 29.597656 C 29.117188 30.335938 29.578125 31.152344 29.941406 31.933594 C 29.648438 32.34375 29.46875 32.574219 29.46875 32.574219 C 29.46875 32.574219 29.472656 32.578125 29.476562 32.585938 C 29.242188 32.898438 28.976562 33.234375 28.703125 33.5625 C 27.707031 34.75 26.519531 36.105469 26.359375 36.496094 C 26.171875 36.957031 26.214844 37.296875 26.578125 37.570312 C 26.84375 37.769531 27.3125 37.800781 27.804688 37.765625 C 28.699219 37.707031 29.332031 37.484375 29.644531 37.347656 C 30.128906 37.179688 30.691406 36.90625 31.222656 36.519531 C 32.199219 35.800781 32.789062 34.769531 32.734375 33.40625 C 32.703125 32.65625 32.464844 31.910156 32.160156 31.210938 C 32.25 31.082031 32.339844 30.953125 32.429688 30.820312 C 33.96875 28.566406 35.164062 26.089844 35.164062 26.089844 C 35.164062 26.089844 35.277344 26.851562 35.648438 28.105469 C 35.835938 28.742188 36.203125 29.433594 36.535156 30.113281 C 35.085938 31.292969 34.1875 32.660156 33.871094 33.558594 C 33.296875 35.21875 33.746094 35.972656 34.597656 36.144531 C 34.980469 36.222656 35.523438 36.046875 35.929688 35.871094 C 36.4375 35.703125 37.050781 35.425781 37.617188 35.003906 C 38.597656 34.285156 39.539062 33.277344 39.480469 31.914062 C 39.453125 31.296875 39.285156 30.679688 39.058594 30.089844 C 40.289062 29.574219 41.878906 29.289062 43.90625 29.527344 C 48.257812 30.035156 49.109375 32.75 48.945312 33.886719 C 48.78125 35.023438 47.871094 35.648438 47.566406 35.835938 C 47.261719 36.027344 47.167969 36.089844 47.195312 36.230469 C 47.230469 36.433594 47.371094 36.425781 47.632812 36.382812 C 47.988281 36.324219 49.914062 35.460938 49.996094 33.359375 C 50.101562 30.703125 47.550781 27.777344 43.03125 27.800781 Z M 9.511719 39.101562 C 8.070312 40.671875 6.058594 41.265625 5.195312 40.765625 C 4.265625 40.226562 4.632812 37.914062 6.402344 36.246094 C 7.476562 35.230469 8.867188 34.292969 9.792969 33.71875 C 10.003906 33.589844 10.308594 33.40625 10.683594 33.179688 C 10.746094 33.144531 10.78125 33.125 10.78125 33.125 L 10.78125 33.121094 C 10.851562 33.078125 10.929688 33.035156 11.003906 32.988281 C 11.648438 35.363281 11.023438 37.453125 9.511719 39.101562 Z M 20.003906 31.96875 C 19.503906 33.191406 18.453125 36.320312 17.8125 36.152344 C 17.265625 36.007812 16.929688 33.628906 17.703125 31.289062 C 18.09375 30.109375 18.925781 28.703125 19.414062 28.15625 C 20.199219 27.277344 21.066406 26.988281 21.273438 27.347656 C 21.542969 27.800781 20.320312 31.199219 20.003906 31.96875 Z M 28.675781 36.105469 C 28.460938 36.214844 28.265625 36.285156 28.175781 36.230469 C 28.109375 36.191406 28.265625 36.046875 28.265625 36.046875 C 28.265625 36.046875 29.347656 34.878906 29.777344 34.347656 C 30.023438 34.039062 30.3125 33.671875 30.628906 33.261719 C 30.628906 33.304688 30.632812 33.34375 30.632812 33.382812 C 30.628906 34.78125 29.277344 35.726562 28.675781 36.105469 Z M 35.355469 34.582031 C 35.195312 34.46875 35.222656 34.105469 35.742188 32.96875 C 35.949219 32.523438 36.414062 31.769531 37.226562 31.050781 C 37.320312 31.347656 37.378906 31.628906 37.378906 31.894531 C 37.367188 33.652344 36.113281 34.308594 35.355469 34.582031 Z M 35.355469 34.582031 "/>
</g>
</svg>
